# AST/ASF file generated using VICON BodyLanguage
# -----------------------------------------------
:version 1.10
:name VICON
:units
  mass 1.0
  length 0.45
  angle deg
:documentation
   .ast/.asf automatically generated from VICON data using
   VICON BodyBuilder and BodyLanguage model FoxedUp or BRILLIANT.MOD
:root
   order TX TY TZ RX RY RZ
   axis XYZ
   position 0 0 0  
   orientation 0 0 0 
:bonedata
  begin
     id 1 
     name lhipjoint
     direction 0.682418 -0.694059 0.22932 
     length 2.25561 
     axis 0 0 0  XYZ
  end
  begin
     id 2 
     name lfemur
     direction 0.34202 -0.939693 0  
     length 6.96448  
     axis 0 0 20  XYZ
    dof rx ry rz
    limits (-160.0 20.0)
           (-70.0 70.0)
           (-60.0 70.0)
  end
  begin
     id 3 
     name ltibia
     direction 0.34202 -0.939693 0   
     length 6.88553   
     axis 0 0 20   XYZ
    dof rx
    limits (-10.0 170.0)
  end
  begin
     id 4 
     name lfoot
     direction 0.0723587 -0.198804 0.977364   
     length 1.88518   
     axis -90 7.62852e-016 20   XYZ
    dof rx rz
    limits (-45.0 90.0)
           (-70.0 20.0)
  end
  begin
     id 5 
     name ltoes
     direction 1.53558e-011 -4.21962e-011 1   
     length 0.952124   
     axis -90 7.62852e-016 20   XYZ
    dof rx
    limits (-90.0 20.0)
  end
  begin
     id 6 
     name rhipjoint
     direction -0.657603 -0.71533 0.236348   
     length 2.18854  
     axis 0 0 0  XYZ 
  end
  begin
     id 7 
     name rfemur
     direction -0.34202 -0.939693 0   
     length 6.86686   
     axis 0 0 -20   XYZ
    dof rx ry rz
    limits (-160.0 20.0)
           (-70.0 70.0)
           (-70.0 60.0)
  end
  begin
     id 8 
     name rtibia
     direction -0.34202 -0.939693 0   
     length 6.59503   
     axis 0 0 -20   XYZ
    dof rx
    limits (-10.0 170.0)
 end
 begin
     id 9 
     name rfoot
     direction -0.101977 -0.280179 0.954516   
     length 1.93723  
     axis -90 -7.62852e-016 -20   XYZ
    dof rx rz
    limits (-45.0 90.0)
           (-20.0 70.0)
  end
  begin
     id 10 
     name rtoes
     direction -1.53564e-011 -4.21897e-011 1   
     length 0.970315   
     axis -90 -7.62852e-016 -20   XYZ
    dof rx
    limits (-90.0 20.0)
  end
  begin
     id 11 
     name lowerback
     direction -0.0339559 0.999421 -0.00235966   
     length 1.88543   
     axis 0 0 0   XYZ
    dof rx ry rz
    limits (-20.0 45.0)
           (-30.0 30.0)
           (-30.0 30.0)
  end
  begin
     id 12 
     name upperback
     direction 0.00401003 0.999739 0.0224689   
     length 1.8856   
     axis 0 0 0   XYZ
    dof rx ry rz
    limits (-20.0 45.0)
           (-30.0 30.0)
           (-30.0 30.0)
  end
  begin
     id 13 
     name thorax
     direction 0.0198619 0.999546 0.0226536   
     length 1.88352   
     axis 0 0 0   XYZ
    dof rx ry rz
    limits (-20.0 45.0)
           (-30.0 30.0)
           (-30.0 30.0)
  end
  begin
     id 14 
     name lowerneck
     direction -0.0461848 0.998632 0.0245198   
     length 1.34895   
     axis 0 0 0   XYZ
    dof rx ry rz
    limits (-20.0 45.0)
           (-30.0 30.0)
           (-30.0 30.0)
  end
  begin
     id 15 
     name upperneck
     direction -0.0180627 0.994724 -0.100984   
     length 1.35214   
     axis 0 0 0   XYZ
    dof rx ry rz
    limits (-20.0 45.0)
           (-30.0 30.0)
           (-30.0 30.0)
  end
  begin
     id 16
     name head
     direction -0.00374772 0.999293 -0.037403  
     length 1.3568  
     axis 0 0 0   XYZ
    dof rx ry rz
    limits (-20.0 45.0)
           (-30.0 30.0)
           (-30.0 30.0)
  end
  begin
     id 17 
     name lclavicle
     direction 0.971773 0.191119 0.138311  
     length 2.84954  
     axis 0 0 0   XYZ
    dof ry rz
    limits (-20.0 10.0)
           (0.0 20.0)
  end
  begin
     id 18 
     name lhumerus
     direction 1 -4.4897e-011 -2.43761e-027   
     length 4.40919   
     axis 180 -30 -90   XYZ
    dof rx ry rz
    limits (-60.0 90.0)
           (-90.0 90.0)
           (-90.0 90.0)
  end
  begin
     id 19
     name lradius
     direction 1 -4.4896e-011 -9.1621e-027   
     length 3.03857   
     axis 180 -30 -90   XYZ
    dof rx
    limits (-10.0 170.0)
  end
  begin
     id 20
     name lwrist
     direction 1 -4.4896e-011 -1.41363e-026   
     length 1.51928   
     axis 1.07133e-014 90 90   XYZ
    dof ry
    limits (-180.0 0.0)
 end
  begin
     id 21 
     name lhand
     direction 1 -4.48978e-011 -2.82725e-026   
     length 0.523208   
     axis 1.80403e-014 90 90   XYZ
    dof rx rz
    limits (-90.0 90.0)
           (-45.0 45.0)
  end
  begin
     id 22 
     name lfingers
     direction 1 -4.48977e-011 -5.6545e-026   
     length 0.421824   
     axis 3.60806e-014 90 90   XYZ
    dof rx
    limits (0.0 90.0)
  end
  begin
     id 23
     name lthumb
     direction 0.707107 -6.34962e-011 0.707107   
     length 0.605657   
     axis -90 45 2.85299e-015   XYZ
    dof rx rz
    limits (-45.0 45.0)
           (-45.0 45.0)
  end
  begin
     id 24 
     name rclavicle
     direction -0.957247 0.24311 0.156766   
     length 3.12406  
     axis 0 0 0   XYZ 
    dof ry rz
    limits (-10.0 20.0)
           (-20.0 0.0)
  end
  begin
     id 25 
     name rhumerus
     direction -1 -4.48964e-011 -1.70632e-027  
     length 4.61969   
     axis 180 30 90   XYZ
    dof rx ry rz
    limits (-90.0 60.0)
           (-90.0 90.0)
           (-90.0 90.0)
  end
  begin
     id 26 
     name rradius
     direction -1 -4.48966e-011 -6.60395e-027   
     length 3.09382   
     axis 180 30 90   XYZ
    dof rx
    limits (-10.0 170.0)
  end
  begin
     id 27 
     name rwrist
     direction -1 -4.48963e-011 -1.41363e-026   
     length 1.54691   
     axis 1.07133e-014 -90 -90   XYZ
    dof ry
    limits (-180.0 0.0)
  end
  begin
     id 28
     name rhand
     direction -1 -4.49013e-011 -2.82725e-026   
     length 0.500896   
     axis 1.80403e-014 -90 -90   XYZ
    dof rx rz
    limits (-90.0 90.0)
           (-45.0 45.0)
  end
  begin
     id 29
     name rfingers
     direction -1 -4.48902e-011 -5.6545e-026   
     length 0.403835   
     axis 3.60806e-014 -90 -90   XYZ
    dof rx
    limits (0.0 90.0)
  end
  begin
     id 30
     name rthumb
     direction -0.707107 -6.34953e-011 0.707107   
     length 0.579829   
     axis -90 -45 -2.85299e-015   XYZ
    dof rx rz
    limits (-45.0 45.0)
           (-45.0 45.0)
  end
:hierarchy
  begin
    root lhipjoint rhipjoint lowerback
    lhipjoint lfemur
    lfemur ltibia
    ltibia lfoot
    lfoot ltoes
    rhipjoint rfemur
    rfemur rtibia
    rtibia rfoot
    rfoot rtoes
    lowerback upperback
    upperback thorax
    thorax lowerneck lclavicle rclavicle
    lowerneck upperneck
    upperneck head
    lclavicle lhumerus
    lhumerus lradius
    lradius lwrist
    lwrist lhand lthumb
    lhand lfingers
    rclavicle rhumerus
    rhumerus rradius
    rradius rwrist
    rwrist rhand rthumb
    rhand rfingers
  end

#!OML:ASF E:\madness\Project 1\Capture day 1\Session 1\Female1.ASF
:FULLY-SPECIFIED
:DEGREES
385
root 7.82806 12.9487 0.254139 -148.55 -73.2309 171.309
lowerback 34.5368 1.82256 -3.03942
upperback 7.93934 0.206014 0.271329
thorax -8.75575 -0.296921 1.88921
lowerneck -6.3338 3.86144 2.1685
upperneck -26.1407 1.29756 -12.6717
head -6.75399 0.627084 -4.52819
rclavicle -1.11319e-014 4.82053e-014
rhumerus 81.2093 -4.15776 -58.7329
rradius 128.183
rwrist -31.228
rhand -10.0144 -47.9189
rfingers 7.12502
rthumb 15.9698 -77.2805
lclavicle -1.11319e-014 4.82053e-014
lhumerus 62.4783 -17.5902 70.3175
lradius 134.216
lwrist 10.1211
lhand -51.3084 -14.5468
lfingers 7.12502
lthumb -23.8444 13.9932
rfemur -76.0526 -2.51373 16.3956
rtibia 82.9346
rfoot -28.0415 -3.27727
rtoes -0.975187
lfemur -78.2844 1.54021 -16.7924
ltibia 87.2935
lfoot -19.2074 6.80048
ltoes -10.1413
386
root 7.84579 12.9386 0.226661 -148.132 -73.291 170.99
lowerback 34.4938 1.92698 -2.84659
upperback 7.8425 0.422667 0.295679
thorax -8.85631 -0.190008 1.73148
lowerneck -5.06631 3.8488 2.22485
upperneck -26.6287 1.19014 -13.0297
head -7.13339 0.665374 -4.69622
rclavicle -3.598e-014 1.05356e-014
rhumerus 81.1284 -4.19364 -58.572
rradius 127.92
rwrist -31.2822
rhand -9.93795 -48.0025
rfingers 7.12502
rthumb 16.0434 -77.3583
lclavicle -3.598e-014 1.05356e-014
lhumerus 62.3156 -18.1989 70.6292
lradius 134.375
lwrist 10.2011
lhand -51.0773 -15.4396
lfingers 7.12502
lthumb -23.6227 13.1292
rfemur -76.2743 -2.53636 16.4318
rtibia 83.0243
rfoot -28.0643 -3.25418
rtoes -0.964548
lfemur -78.873 1.67181 -16.664
ltibia 87.9082
lfoot -19.0131 5.35783
ltoes -6.44179
387
root 7.86605 12.9289 0.200762 -147.764 -73.3257 170.636
lowerback 34.6742 1.89661 -2.74864
upperback 7.87798 0.413533 0.386968
thorax -8.88455 -0.199837 1.77908
lowerneck -5.61084 4.07595 1.60067
upperneck -26.2588 1.53021 -13.1428
head -6.90127 0.875754 -4.61271
rclavicle 2.94201e-014 8.74653e-015
rhumerus 81.6068 -3.88504 -58.491
rradius 127.658
rwrist -31.2786
rhand -9.91851 -48.1627
rfingers 7.12502
rthumb 16.0621 -77.517
lclavicle 2.94201e-014 8.74653e-015
lhumerus 62.3326 -18.2539 70.6979
lradius 134.424
lwrist 9.71418
lhand -51.1922 -15.3774
lfingers 7.12502
lthumb -23.733 13.1771
rfemur -76.4587 -2.5732 16.464
rtibia 83.1871
rfoot -28.0323 -3.24279
rtoes -1.2235
lfemur -79.3539 1.76634 -16.5426
ltibia 88.6372
lfoot -19.0062 4.1182
ltoes -3.39627
388
root 7.88618 12.9141 0.176276 -146.911 -73.3848 169.827
lowerback 34.8325 1.97952 -2.36467
upperback 7.67589 0.646743 0.205462
thorax -9.17016 -0.0810881 1.29384
lowerneck -4.62569 3.97719 1.95817
upperneck -26.3662 1.34717 -13.5321
head -7.10397 0.842486 -4.8258
rclavicle 4.81059e-014 -1.37161e-014
rhumerus 81.2323 -4.15694 -58.2569
rradius 127.278
rwrist -31.0913
rhand -10.0287 -48.275
rfingers 7.12502
rthumb 15.956 -77.6378
lclavicle 4.81059e-014 -1.37161e-014
lhumerus 62.4695 -19.3646 70.2551
lradius 134.602
lwrist 9.46713
lhand -51.8988 -13.6821
lfingers 7.12502
lthumb -24.4105 14.7828
rfemur -76.7408 -2.75292 16.4271
rtibia 83.4177
rfoot -27.9914 -3.30304
rtoes -2.05414
lfemur -79.8933 1.76816 -16.5485
ltibia 89.5151
lfoot -19.2298 3.19843
ltoes -2.09594
389
root 7.90402 12.8848 0.154429 -145.793 -73.4892 168.915
lowerback 34.6379 1.94263 -2.25062
upperback 7.62339 0.664232 0.212665
thorax -9.15595 -0.067072 1.23471
lowerneck -4.47254 4.06724 1.85442
upperneck -26.1652 1.4512 -13.863
head -7.04965 0.940993 -4.91957
rclavicle -4.37326e-015 4.21423e-014
rhumerus 81.3794 -3.98516 -58.0279
rradius 127.005
rwrist -30.9207
rhand -9.77966 -48.5224
rfingers 7.12502
rthumb 16.1958 -77.8658
lclavicle -4.37326e-015 4.21423e-014
lhumerus 62.5866 -19.9546 69.5969
lradius 135.033
lwrist 9.79803
lhand -52.7731 -11.468
lfingers 7.12502
lthumb -25.2484 16.8814
rfemur -77.2855 -2.99971 16.4055
rtibia 83.7577
rfoot -27.9688 -3.4257
rtoes -3.10231
lfemur -80.561 1.73776 -16.5866
ltibia 90.5879
lfoot -19.4931 2.70881
ltoes -2.48468
390
root 7.90302 12.8652 0.139028 -145.775 -73.3645 168.62
lowerback 34.7832 1.9176 -2.36912
upperback 7.80173 0.570711 0.31526
thorax -9.01201 -0.124092 1.44169
lowerneck -5.22987 4.40832 1.54989
upperneck -25.6062 1.95331 -14.1577
head -6.69034 1.19739 -4.94324
rclavicle 1.98785e-014 -1.88845e-014
rhumerus 81.7365 -3.34356 -57.8173
rradius 127.039
rwrist -30.8629
rhand -9.56371 -48.4514
rfingers 7.12502
rthumb 16.4038 -77.7778
lclavicle 1.98785e-014 -1.88845e-014
lhumerus 62.391 -19.4098 70.0469
lradius 135.148
lwrist 9.60184
lhand -52.6867 -10.6268
lfingers 7.12502
lthumb -25.1656 17.7342
rfemur -77.1817 -3.06165 16.3622
rtibia 84.0777
rfoot -28.168 -3.25001
rtoes -3.39279
lfemur -80.4832 1.78042 -16.6405
ltibia 91.8436
lfoot -19.7614 2.96217
ltoes -5.17559
391
root 7.91214 12.8363 0.124002 -145.625 -73.2256 168.363
lowerback 34.8722 1.91167 -2.59985
upperback 7.89157 0.468434 0.350408
thorax -8.94359 -0.176893 1.63993
lowerneck -5.9824 4.8374 1.62214
upperneck -25.0255 2.58834 -14.5429
head -6.30172 1.49142 -5.06005
rclavicle 1.07344e-014 -4.81059e-014
rhumerus 82.2406 -2.93918 -57.7048
rradius 126.867
rwrist -31.0896
rhand -9.55982 -48.243
rfingers 7.12502
rthumb 16.4075 -77.569
lclavicle 1.07344e-014 -4.81059e-014
lhumerus 62.0457 -18.0387 71.9533
lradius 134.674
lwrist 8.47188
lhand -51.3277 -12.1758
lfingers 7.12502
lthumb -23.8629 16.3619
rfemur -77.3678 -3.06571 16.3335
rtibia 84.4919
rfoot -28.4077 -3.05151
rtoes -3.04692
lfemur -80.7429 1.86284 -16.7108
ltibia 93.3429
lfoot -20.0743 3.29728
ltoes -7.47539
